# xmcd
#
# Track frame offsets:
#	150
#	20347
#	50462
#	68747
#	94845
#	129405
#
# Disc length: 1976 seconds
#
# Revision: 7
# Processed by: cddbd v1.5.2PL0 Copyright (c) Steve Scherf et al.
# Submitted via: EasyCDDAExtractor 15.3.0.1
#
DISCID=4707b606
DTITLE=Jennifer Lopez - The Reel Me
DYEAR=2003
DGENRE=Pop
TTITLE0=Baby I Love U!
TTITLE1=Jenny From The Block (Seismic Crew's Latin Disco Trip)
TTITLE2=All I Have (Featuring LL Cool J) (Ignorants Mix)
TTITLE3=I'm Glad (Paul Oakenfold Perfecto Remix)
TTITLE4=The One (Bastone 2 Burnz Club Mix)
TTITLE5=Baby I Love U! (R. Kelly Remix)
EXTD=
EXTT0=
EXTT1=
EXTT2=
EXTT3=
EXTT4=
EXTT5=
PLAYORDER=
